<?xml version="1.0" standalone="no"?>
<!DOCTYPE svg PUBLIC "-//W3C//DTD SVG 20010904//EN"
 "http://www.w3.org/TR/2001/REC-SVG-20010904/DTD/svg10.dtd">
<svg version="1.0" xmlns="http://www.w3.org/2000/svg"
 width="16.000000pt" height="16.000000pt" viewBox="0 0 16.000000 16.000000"
 preserveAspectRatio="xMidYMid meet">
<metadata>
Created by potrace 1.11, written by Peter Selinger 2001-2013
</metadata>
<g transform="translate(0.000000,16.000000) scale(0.005926,-0.005926)"
fill="#000000" stroke="none">
<path d="M1687 2464 c-1 -1 -32 -5 -69 -8 -278 -22 -580 -201 -770 -456 -98
-133 -198 -328 -202 -397 0 -13 -5 -23 -10 -23 -5 0 -7 -3 -4 -6 3 -3 2 -21
-4 -41 -20 -71 -34 -171 -37 -260 0 -18 -5 -33 -9 -33 -18 0 -140 130 -188
200 -54 78 -83 142 -104 223 -7 26 -17 47 -21 47 -5 0 -27 -11 -48 -24 -79
-50 -155 -166 -187 -286 -27 -102 -24 -348 6 -470 5 -19 12 -54 15 -77 3 -23
8 -57 11 -75 10 -73 12 -262 3 -318 -5 -32 -20 -92 -34 -132 -29 -86 -29 -88
-10 -88 8 0 15 5 15 10 0 6 7 10 15 10 19 0 91 71 100 98 3 12 11 22 16 22 5
0 9 6 9 14 0 7 10 33 23 57 25 50 25 52 42 130 40 182 48 462 20 658 -13 92
-15 151 -5 151 5 0 10 -7 10 -15 0 -8 27 -67 60 -132 53 -105 151 -244 314
-448 13 -16 69 -86 123 -155 148 -186 287 -314 360 -333 50 -12 116 60 129
140 6 40 4 45 -32 80 -22 21 -63 57 -92 81 -69 57 -149 140 -170 174 -9 16
-20 28 -24 28 -4 0 -8 4 -8 9 0 6 -14 30 -30 55 -138 204 -167 526 -70 778 68
176 153 296 283 400 159 128 318 179 547 174 130 -3 148 -6 240 -33 30 -9 57
-17 60 -18 3 0 15 -6 26 -13 12 -6 24 -9 26 -6 3 2 11 -2 18 -11 7 -8 21 -15
30 -15 10 0 20 -3 22 -7 2 -5 23 -19 48 -32 115 -61 279 -202 295 -252 4 -10
10 -19 14 -19 11 0 59 -109 75 -169 16 -64 12 -124 -14 -192 -24 -65 -101
-172 -150 -209 -18 -14 -39 -31 -46 -38 -27 -26 -161 -81 -234 -96 -102 -21
-228 -15 -304 14 -160 61 -265 278 -217 448 25 90 131 168 263 195 58 12 98
10 176 -7 63 -14 124 -67 138 -120 6 -25 5 -25 -25 -15 -17 6 -44 26 -60 44
-52 59 -78 62 -132 13 -33 -30 -62 -103 -54 -138 9 -40 109 -140 150 -150 6
-1 16 -5 23 -7 22 -9 126 4 130 15 2 7 10 12 17 12 21 0 85 79 112 137 31 67
38 175 16 239 -21 61 -96 138 -165 168 -166 73 -379 42 -533 -79 -127 -101
-207 -226 -241 -380 -9 -41 -9 -173 0 -210 4 -16 8 -39 10 -50 10 -54 75 -167
134 -232 85 -92 217 -140 377 -137 73 1 108 7 185 34 213 73 346 164 461 316
115 152 165 301 164 489 -1 87 -21 153 -78 250 -147 253 -490 461 -809 491
-91 9 -118 10 -121 8z"/>
</g>
</svg>
