<svg version="1.0" xmlns="http://www.w3.org/2000/svg" width="21.333" height="21.333" viewBox="0 0 16 16"><path d="M9.997 1.398a3.75 3.75 0 0 1-.409.048c-1.647.13-3.437 1.19-4.563 2.702-.58.788-1.173 1.944-1.197 2.353 0 .077-.03.136-.06.136-.029 0-.04.018-.023.035.018.018.012.125-.023.243a7.043 7.043 0 0 0-.22 1.541c0 .107-.03.196-.053.196-.107 0-.83-.77-1.114-1.185a3.866 3.866 0 0 1-.616-1.322c-.042-.154-.101-.278-.125-.278-.03 0-.16.065-.284.142-.47.296-.92.983-1.11 1.695-.16.604-.142 2.062.036 2.785.03.112.071.32.089.456.018.136.047.338.065.445.06.432.071 1.552.018 1.884-.03.19-.119.545-.202.782-.171.51-.171.522-.059.522.048 0 .089-.03.089-.06 0-.035.042-.059.089-.059.113 0 .54-.42.593-.58.017-.072.065-.13.094-.13.03 0 .054-.036.054-.084 0-.041.059-.195.136-.338.148-.296.148-.308.249-.77.237-1.079.284-2.738.118-3.9-.077-.545-.089-.894-.03-.894.03 0 .06.041.06.089 0 .047.16.397.356.782.314.622.894 1.446 1.86 2.655.077.095.41.51.73.918.876 1.103 1.7 1.861 2.133 1.974.296.07.687-.356.764-.83.036-.237.024-.267-.19-.474a12.48 12.48 0 0 0-.545-.48c-.409-.338-.883-.83-1.007-1.031-.054-.095-.119-.166-.142-.166-.024 0-.048-.024-.048-.053 0-.036-.083-.178-.178-.326-.817-1.21-.99-3.117-.414-4.61.403-1.044.906-1.755 1.677-2.371.942-.759 1.884-1.06 3.241-1.031.77.018.877.035 1.422.195l.356.107c.018 0 .089.036.154.077.071.036.142.053.154.036.018-.012.065.011.107.065a.285.285 0 0 0 .178.089c.059 0 .118.017.13.041.012.03.136.113.284.19.682.361 1.654 1.197 1.749 1.493.023.06.059.113.083.113.065 0 .35.646.444 1.001.095.38.071.735-.083 1.138-.142.385-.599 1.02-.889 1.239a4.257 4.257 0 0 0-.272.225c-.16.154-.955.48-1.387.569-.605.124-1.351.088-1.802-.083-.948-.362-1.57-1.648-1.286-2.655.149-.534.777-.996 1.559-1.156.344-.07.58-.06 1.043.042.373.083.735.397.818.71.035.149.03.149-.148.09a1.075 1.075 0 0 1-.356-.261c-.308-.35-.462-.367-.782-.077-.196.178-.368.61-.32.818.053.237.646.83.889.889.035.006.094.03.136.041.13.053.747-.024.77-.089.012-.041.06-.07.101-.07.124 0 .504-.47.664-.813.183-.397.225-1.037.095-1.416-.125-.362-.57-.818-.978-.996-.984-.432-2.246-.249-3.159.468-.752.599-1.226 1.34-1.428 2.252-.053.243-.053 1.026 0 1.245.024.095.047.23.06.296.059.32.444.99.793 1.375.504.545 1.286.83 2.235.812.432-.006.64-.042 1.096-.202 1.262-.432 2.05-.972 2.732-1.872.681-.901.977-1.784.972-2.898-.006-.516-.125-.907-.463-1.482-.87-1.499-2.903-2.731-4.794-2.91-.54-.053-.7-.059-.717-.047z"/></svg>